<svg width="382" height="424" viewBox="0 0 382 424" fill="none" xmlns="http://www.w3.org/2000/svg">
<rect width="381.836" height="424" transform="translate(0.0820312)" fill="white"/>
<path fill-rule="evenodd" clip-rule="evenodd" d="M88.082 72C83.6638 72 80.082 75.5817 80.082 80V124C80.082 128.418 83.6638 132 88.082 132H126.082C130.5 132 134.082 135.582 134.082 140V174C134.082 178.418 130.5 182 126.082 182H88.082C83.6638 182 80.082 185.582 80.082 190V234C80.082 238.418 83.6638 242 88.082 242H126.082C130.5 242 134.082 245.582 134.082 250V286C134.082 290.418 130.5 294 126.082 294H88.082C83.6638 294 80.082 297.582 80.082 302V344C80.082 348.418 83.6638 352 88.082 352H130.082C134.5 352 138.082 348.418 138.082 344V304C138.082 299.582 141.664 296 146.082 296H181.082C185.5 296 189.082 299.582 189.082 304V344C189.082 348.418 192.664 352 197.082 352H239.082C243.5 352 247.082 348.418 247.082 344V304C247.082 299.582 250.664 296 255.082 296H293.918C298.336 296 301.918 292.418 301.918 288V248C301.918 243.582 298.336 240 293.918 240H255.082C250.664 240 247.082 236.418 247.082 232V192C247.082 187.582 250.664 184 255.082 184H293.918C298.336 184 301.918 180.418 301.918 176V136C301.918 131.582 298.336 128 293.918 128H255.082C250.664 128 247.082 124.418 247.082 120V80C247.082 75.5817 243.5 72 239.082 72H197.082C192.664 72 189.082 75.5817 189.082 80V120C189.082 124.418 185.5 128 181.082 128H146.082C141.664 128 138.082 124.418 138.082 120V80C138.082 75.5817 134.5 72 130.082 72H88.082ZM243.918 286C243.918 290.418 240.336 294 235.918 294H200.082C195.664 294 192.082 290.418 192.082 286V250C192.082 245.582 195.664 242 200.082 242H235.918C240.336 242 243.918 245.582 243.918 250V286ZM181.082 240C185.5 240 189.082 236.418 189.082 232V192C189.082 187.582 185.5 184 181.082 184H146.082C141.664 184 138.082 187.582 138.082 192V232C138.082 236.418 141.664 240 146.082 240H181.082ZM243.918 140C243.918 135.582 240.336 132 235.918 132H200.082C195.664 132 192.082 135.582 192.082 140V174C192.082 178.418 195.664 182 200.082 182H235.918C240.336 182 243.918 178.418 243.918 174V140Z" fill="#151515"/>
</svg>
