<svg width="1454" height="424" viewBox="0 0 1454 424" fill="none" xmlns="http://www.w3.org/2000/svg">
<rect width="1453.84" height="424" transform="translate(0.0820312)" fill="#151515"/>
<path fill-rule="evenodd" clip-rule="evenodd" d="M88.082 72C83.6638 72 80.082 75.5817 80.082 80V124C80.082 128.418 83.6638 132 88.082 132H126.082C130.5 132 134.082 135.582 134.082 140V174C134.082 178.418 130.5 182 126.082 182H88.082C83.6638 182 80.082 185.582 80.082 190V234C80.082 238.418 83.6638 242 88.082 242H126.082C130.5 242 134.082 245.582 134.082 250V286C134.082 290.418 130.5 294 126.082 294H88.082C83.6638 294 80.082 297.582 80.082 302V344C80.082 348.418 83.6638 352 88.082 352H130.082C134.5 352 138.082 348.418 138.082 344V304C138.082 299.582 141.664 296 146.082 296H181.082C185.5 296 189.082 299.582 189.082 304V344C189.082 348.418 192.664 352 197.082 352H239.082C243.5 352 247.082 348.418 247.082 344V304C247.082 299.582 250.664 296 255.082 296H293.918C298.336 296 301.918 292.418 301.918 288V248C301.918 243.582 298.336 240 293.918 240H255.082C250.664 240 247.082 236.418 247.082 232V192C247.082 187.582 250.664 184 255.082 184H293.918C298.336 184 301.918 180.418 301.918 176V136C301.918 131.582 298.336 128 293.918 128H255.082C250.664 128 247.082 124.418 247.082 120V80C247.082 75.5817 243.5 72 239.082 72H197.082C192.664 72 189.082 75.5817 189.082 80V120C189.082 124.418 185.5 128 181.082 128H146.082C141.664 128 138.082 124.418 138.082 120V80C138.082 75.5817 134.5 72 130.082 72H88.082ZM243.918 286C243.918 290.418 240.336 294 235.918 294H200.082C195.664 294 192.082 290.418 192.082 286V250C192.082 245.582 195.664 242 200.082 242H235.918C240.336 242 243.918 245.582 243.918 250V286ZM181.082 240C185.5 240 189.082 236.418 189.082 232V192C189.082 187.582 185.5 184 181.082 184H146.082C141.664 184 138.082 187.582 138.082 192V232C138.082 236.418 141.664 240 146.082 240H181.082ZM243.918 140C243.918 135.582 240.336 132 235.918 132H200.082C195.664 132 192.082 135.582 192.082 140V174C192.082 178.418 195.664 182 200.082 182H235.918C240.336 182 243.918 178.418 243.918 174V140Z" fill="white"/>
<path d="M1292.31 124.93V191.743C1296.07 185.089 1300.96 179.845 1306.99 176.009C1313.09 172.095 1321.08 170.138 1330.94 170.138C1340.1 170.138 1347.89 171.938 1354.31 175.539C1360.81 179.062 1365.7 184.072 1368.99 190.569C1372.27 196.988 1373.92 204.543 1373.92 213.232V297.189H1350.67V221.569C1350.67 211.94 1348.51 204.543 1344.21 199.376C1339.98 194.209 1333.56 191.626 1324.95 191.626C1318.22 191.626 1312.39 193.192 1307.46 196.323C1302.52 199.376 1298.77 203.564 1296.18 208.887C1293.6 214.132 1292.31 220.042 1292.31 226.618V297.189H1269.06V124.93H1292.31Z" fill="white"/>
<path d="M1226.42 211.231C1224.46 204.029 1221.02 198.667 1216.08 195.144C1211.15 191.543 1204.58 189.742 1196.36 189.742C1188.29 189.742 1182.15 191.269 1177.92 194.322C1173.77 197.375 1171.7 201.406 1171.7 206.417C1171.7 210.565 1173.07 213.814 1175.81 216.163C1178.63 218.433 1182.11 220.116 1186.26 221.212C1190.49 222.308 1196.28 223.404 1203.64 224.5C1213.42 225.987 1221.37 227.631 1227.47 229.431C1233.58 231.154 1238.79 234.324 1243.09 238.943C1247.48 243.483 1249.67 249.981 1249.67 258.435C1249.67 266.42 1247.63 273.504 1243.56 279.689C1239.49 285.795 1233.74 290.57 1226.3 294.014C1218.86 297.38 1210.29 299.063 1200.58 299.063C1191.74 299.063 1183.6 297.654 1176.16 294.836C1168.8 292.018 1162.54 287.869 1157.37 282.389C1152.28 276.831 1148.68 270.138 1146.57 262.31L1168.41 255.969C1170.29 263.876 1174.16 269.825 1180.04 273.817C1185.91 277.732 1192.95 279.689 1201.17 279.689C1206.42 279.689 1210.92 278.945 1214.68 277.458C1218.51 275.892 1221.45 273.739 1223.48 270.999C1225.52 268.259 1226.54 265.128 1226.54 261.605C1226.54 257.535 1225.09 254.325 1222.19 251.977C1219.37 249.55 1215.85 247.789 1211.62 246.693C1207.4 245.597 1201.52 244.423 1194.01 243.17C1184.46 241.604 1176.63 239.843 1170.52 237.886C1164.5 235.929 1159.37 232.641 1155.14 228.022C1150.91 223.325 1148.8 216.828 1148.8 208.53C1148.8 200.624 1150.8 193.774 1154.79 187.981C1158.86 182.188 1164.54 177.765 1171.82 174.712C1179.17 171.659 1187.71 170.133 1197.41 170.133C1211.66 170.133 1222.93 173.303 1231.23 179.644C1239.61 185.907 1245.01 194.361 1247.44 205.007L1226.42 211.231Z" fill="white"/>
<path d="M1105.34 297.185V278.045C1095.79 292.057 1082.05 299.063 1064.12 299.063C1055.51 299.063 1048.16 297.576 1042.05 294.601C1035.94 291.627 1031.29 287.36 1028.08 281.802C1024.94 276.166 1023.38 269.512 1023.38 261.84C1023.38 251.977 1025.88 244.501 1030.89 239.412C1035.9 234.246 1041.74 230.762 1048.39 228.962C1055.12 227.161 1063.89 225.635 1074.69 224.382C1082.05 223.521 1087.73 222.621 1091.72 221.682C1095.79 220.742 1099.04 219.216 1101.47 217.102C1103.89 214.988 1105.11 211.975 1105.11 208.06C1105.11 202.894 1102.99 198.745 1098.76 195.614C1094.54 192.404 1088.35 190.799 1080.21 190.799C1071.6 190.799 1064.52 192.717 1058.96 196.553C1053.48 200.311 1049.6 205.829 1047.33 213.11L1025.26 206.769C1028.78 195.261 1035.24 186.298 1044.63 179.879C1054.03 173.382 1066 170.133 1080.56 170.133C1090.66 170.133 1099.27 171.738 1106.4 174.947C1113.52 178.078 1118.92 182.619 1122.6 188.568C1126.36 194.518 1128.24 201.68 1128.24 210.057V297.185H1105.34ZM1046.51 261.253C1046.51 272.682 1053.79 278.397 1068.35 278.397C1075.16 278.397 1081.35 277.223 1086.9 274.874C1092.46 272.526 1096.89 269.081 1100.17 264.541C1103.46 259.922 1105.11 254.443 1105.11 248.102V236.007C1101.5 237.338 1097.43 238.473 1092.89 239.412C1088.35 240.274 1082.68 241.213 1075.87 242.231C1068.59 243.248 1063.11 244.227 1059.43 245.166C1055.83 246.106 1052.77 247.828 1050.27 250.333C1047.76 252.76 1046.51 256.4 1046.51 261.253Z" fill="white"/>
<path d="M980.861 297.189V276.171C977.26 283.999 972.211 289.792 965.713 293.549C959.294 297.229 951.427 299.068 942.111 299.068C930.291 299.068 920.388 296.328 912.403 290.849C904.418 285.369 898.469 277.815 894.555 268.186C890.641 258.479 888.684 247.324 888.684 234.72C888.684 222.039 890.641 210.883 894.555 201.255C898.469 191.548 904.379 183.954 912.286 178.475C920.27 172.917 930.095 170.138 941.759 170.138C960.625 170.138 973.58 177.496 980.626 192.213V124.93H1003.88V297.189H980.861ZM911.933 234.72C911.933 243.879 913.303 251.747 916.043 258.322C918.783 264.82 922.736 269.791 927.903 273.235C933.07 276.679 939.215 278.402 946.338 278.402C953.462 278.402 959.568 276.679 964.656 273.235C969.823 269.791 973.776 264.82 976.516 258.322C979.256 251.747 980.626 243.879 980.626 234.72C980.626 225.405 979.256 217.498 976.516 211.001C973.776 204.425 969.823 199.454 964.656 196.088C959.568 192.644 953.462 190.921 946.338 190.921C939.215 190.921 933.07 192.644 927.903 196.088C922.815 199.454 918.861 204.425 916.043 211.001C913.303 217.498 911.933 225.405 911.933 234.72Z" fill="white"/>
<path d="M789.445 242.818C789.758 249.55 791.245 255.617 793.907 261.018C796.647 266.341 800.6 270.569 805.766 273.7C810.933 276.831 817.156 278.397 824.437 278.397C838.997 278.397 849.761 271.86 856.728 258.787L875.751 267.829C870.662 277.379 863.813 284.973 855.202 290.609C846.669 296.245 836.022 299.063 823.262 299.063C810.972 299.063 800.561 296.402 792.028 291.079C783.573 285.755 777.193 278.319 772.888 268.768C768.582 259.14 766.43 247.984 766.43 235.303C766.43 222.073 768.739 210.566 773.358 200.78C778.055 190.917 784.709 183.362 793.32 178.118C801.931 172.794 812.107 170.133 823.85 170.133C834.731 170.133 844.164 172.403 852.149 176.943C860.212 181.484 866.396 188.02 870.701 196.553C875.085 205.086 877.277 215.184 877.277 226.848V242.818H789.445ZM853.792 223.443C853.479 212.327 850.661 204.107 845.338 198.784C840.015 193.461 832.735 190.799 823.497 190.799C813.477 190.799 805.649 193.735 800.013 199.606C794.455 205.399 791.01 213.345 789.679 223.443H853.792Z" fill="white"/>
<path d="M732.012 211.231C730.055 204.029 726.61 198.667 721.679 195.144C716.747 191.543 710.171 189.742 701.951 189.742C693.888 189.742 687.743 191.269 683.516 194.322C679.367 197.375 677.293 201.406 677.293 206.417C677.293 210.565 678.663 213.814 681.402 216.163C684.221 218.433 687.704 220.116 691.853 221.212C696.08 222.308 701.873 223.404 709.232 224.5C719.017 225.987 726.963 227.631 733.069 229.431C739.175 231.154 744.38 234.324 748.686 238.943C753.07 243.483 755.262 249.981 755.262 258.435C755.262 266.42 753.226 273.504 749.156 279.689C745.085 285.795 739.331 290.57 731.894 294.014C724.458 297.38 715.886 299.063 706.179 299.063C697.333 299.063 689.191 297.654 681.755 294.836C674.396 292.018 668.134 287.869 662.967 282.389C657.879 276.831 654.278 270.138 652.164 262.31L674.005 255.969C675.884 263.876 679.758 269.825 685.63 273.817C691.501 277.732 698.546 279.689 706.766 279.689C712.011 279.689 716.512 278.945 720.269 277.458C724.105 275.892 727.041 273.739 729.076 270.999C731.112 268.259 732.129 265.128 732.129 261.605C732.129 257.535 730.681 254.325 727.785 251.977C724.966 249.55 721.444 247.789 717.216 246.693C712.989 245.597 707.118 244.423 699.603 243.17C690.053 241.604 682.224 239.843 676.118 237.886C670.091 235.929 664.963 232.641 660.736 228.022C656.509 223.325 654.395 216.828 654.395 208.53C654.395 200.624 656.391 193.774 660.384 187.981C664.454 182.188 670.13 177.765 677.41 174.712C684.769 171.659 693.301 170.133 703.008 170.133C717.256 170.133 728.528 173.303 736.826 179.644C745.202 185.907 750.604 194.361 753.031 205.007L732.012 211.231Z" fill="white"/>
<path d="M610.934 297.185V278.045C601.384 292.057 587.645 299.063 569.718 299.063C561.107 299.063 553.749 297.576 547.643 294.601C541.537 291.627 536.879 287.36 533.67 281.802C530.538 276.166 528.973 269.512 528.973 261.84C528.973 251.977 531.478 244.501 536.488 239.412C541.498 234.246 547.33 230.762 553.984 228.962C560.716 227.161 569.484 225.635 580.287 224.382C587.645 223.521 593.321 222.621 597.313 221.682C601.384 220.742 604.632 219.216 607.059 217.102C609.486 214.988 610.699 211.975 610.699 208.06C610.699 202.894 608.586 198.745 604.358 195.614C600.131 192.404 593.947 190.799 585.805 190.799C577.194 190.799 570.11 192.717 564.552 196.553C559.072 200.311 555.197 205.829 552.927 213.11L530.851 206.769C534.374 195.261 540.832 186.298 550.226 179.879C559.62 173.382 571.597 170.133 586.158 170.133C596.256 170.133 604.867 171.738 611.991 174.947C619.114 178.078 624.516 182.619 628.195 188.568C631.953 194.518 633.831 201.68 633.831 210.057V297.185H610.934ZM552.105 261.253C552.105 272.682 559.385 278.397 573.946 278.397C580.756 278.397 586.941 277.223 592.499 274.874C598.057 272.526 602.48 269.081 605.767 264.541C609.055 259.922 610.699 254.443 610.699 248.102V236.007C607.098 237.338 603.028 238.473 598.487 239.412C593.947 240.274 588.271 241.213 581.461 242.231C574.181 243.248 568.701 244.227 565.022 245.166C561.421 246.106 558.368 247.828 555.863 250.333C553.358 252.76 552.105 256.4 552.105 261.253Z" fill="white"/>
<path d="M461.675 128.805C472.243 128.805 481.245 130.488 488.682 133.854C496.197 137.142 501.873 141.917 505.709 148.179C509.544 154.364 511.462 161.683 511.462 170.138C511.462 179.218 509.349 187.203 505.121 194.092C500.973 200.902 495.101 205.717 487.508 208.535C496.354 210.649 503.204 215.228 508.057 222.273C512.911 229.319 515.337 237.969 515.337 248.224C515.337 257.774 513.224 266.268 508.996 273.705C504.847 281.063 498.898 286.817 491.148 290.966C483.398 295.115 474.396 297.189 464.141 297.189H395.918V128.805H461.675ZM461.792 274.292C470.951 274.292 478.114 271.787 483.281 266.777C488.447 261.689 491.031 254.878 491.031 246.345C491.031 237.969 488.487 231.393 483.398 226.618C478.31 221.843 471.186 219.455 462.027 219.455H419.99V274.292H461.792ZM458.857 199.611C467.859 199.611 474.865 197.458 479.875 193.153C484.886 188.769 487.391 182.819 487.391 175.304C487.391 167.867 484.964 162.075 480.11 157.926C475.335 153.777 468.72 151.702 460.266 151.702H419.99V199.611H458.857Z" fill="white"/>
</svg>
